<?xml version="1.0" standalone="no"?>
<!DOCTYPE svg PUBLIC "-//W3C//DTD SVG 20010904//EN"
 "http://www.w3.org/TR/2001/REC-SVG-20010904/DTD/svg10.dtd">
<svg version="1.0" xmlns="http://www.w3.org/2000/svg"
 width="344.000000pt" height="344.000000pt" viewBox="0 0 344.000000 344.000000"
 preserveAspectRatio="xMidYMid meet">

<g transform="translate(0.000000,344.000000) scale(0.100000,-0.100000)"
fill="#000000" stroke="none">
<path d="M3052 3352 c-29 -11 -255 -195 -677 -552 -349 -294 -634 -539 -634
-544 -1 -4 115 -125 256 -267 l258 -260 535 627 c294 344 543 642 553 661 46
87 30 195 -40 273 -68 76 -159 98 -251 62z"/>
<path d="M1284 1887 c-187 -155 -355 -295 -374 -310 l-33 -29 334 -334 335
-335 305 365 c167 202 305 372 307 379 1 6 -118 132 -265 279 l-268 267 -341
-282z"/>
<path d="M455 1295 c-165 -92 -312 -178 -327 -192 -47 -45 -62 -101 -54 -201
7 -87 19 -159 30 -169 3 -3 56 27 118 67 307 198 318 204 346 194 14 -5 33
-21 41 -36 25 -44 4 -70 -126 -154 -65 -42 -169 -108 -230 -148 l-113 -72 34
-70 c67 -140 174 -253 311 -330 36 -20 67 -35 69 -33 101 142 172 237 184 247
23 18 66 15 85 -6 33 -36 21 -72 -58 -182 -41 -57 -73 -105 -72 -107 12 -11
164 -33 230 -33 93 0 145 19 188 66 25 28 349 607 349 624 0 13 -681 700 -694
700 -6 0 -146 -74 -311 -165z"/>
</g>
</svg>
